<?xml version="1.0" encoding="UTF-8" standalone="no"?>
<!-- Roman Inozemtsev: https://github.com/mir-one/  -->

<svg
   xmlns:dc="http://purl.org/dc/elements/1.1/"
   xmlns:cc="http://creativecommons.org/ns#"
   xmlns:rdf="http://www.w3.org/1999/02/22-rdf-syntax-ns#"
   xmlns:svg="http://www.w3.org/2000/svg"
   xmlns="http://www.w3.org/2000/svg"
   xmlns:sodipodi="http://sodipodi.sourceforge.net/DTD/sodipodi-0.dtd"
   xmlns:inkscape="http://www.inkscape.org/namespaces/inkscape"
   version="1.1"
   id="Слой_1"
   x="0px"
   y="0px"
   viewBox="0 0 64.000001 64"
   xml:space="preserve"
   sodipodi:docname="wB-bg-MIR.svg"
   inkscape:version="0.92.3 (2405546, 2018-03-11)"
   width="64"
   height="64"><metadata
   id="metadata19"><rdf:RDF><cc:Work
       rdf:about=""><dc:format>image/svg+xml</dc:format><dc:type
         rdf:resource="http://purl.org/dc/dcmitype/StillImage" /></cc:Work></rdf:RDF></metadata><defs
   id="defs17" /><sodipodi:namedview
   pagecolor="#ffffff"
   bordercolor="#666666"
   borderopacity="1"
   objecttolerance="10"
   gridtolerance="10"
   guidetolerance="10"
   inkscape:pageopacity="0"
   inkscape:pageshadow="2"
   inkscape:window-width="1366"
   inkscape:window-height="691"
   id="namedview15"
   showgrid="false"
   inkscape:zoom="2.4907045"
   inkscape:cx="-80.005008"
   inkscape:cy="51.10327"
   inkscape:window-x="0"
   inkscape:window-y="0"
   inkscape:window-maximized="1"
   inkscape:current-layer="Слой_1" />
<style
   type="text/css"
   id="style2">
	.st0{fill:#F79420;}
	.st1{fill:#D57E28;}
	.st2{fill:#FFFFFF;}
</style>

<circle
   style="opacity:1;fill:#333333;fill-opacity:1;fill-rule:nonzero;stroke:none;stroke-width:3;stroke-linecap:round;stroke-linejoin:bevel;stroke-miterlimit:4;stroke-dasharray:none;stroke-dashoffset:0;stroke-opacity:1;paint-order:stroke markers fill"
   id="path4778"
   cx="32"
   cy="32"
   r="32" /><path
   style="fill:#ffffff;stroke-width:0.99999994"
   d="M 32.04724,2.0000001 C 15.4891,2.0000001 2.0000001,15.417159 2.0000001,32.00091 2.0000001,48.58466 15.39644,62 31.95458,62 c 4,0 7.81359,-0.838868 11.25545,-2.236375 C 50.78335,56.782276 56.77696,50.727141 59.76889,43.27377 61.16424,39.826586 62,36.007097 62,32.00091 62,15.417159 48.60538,2.0000001 32.04724,2.0000001 Z m -0.0927,2.236375 c 15.25581,0 27.71984,12.3919569 27.71984,27.7645349 0,3.354017 -0.65007,6.520972 -1.67333,9.50232 -2.80494,7.639705 -8.89204,13.694842 -16.55887,16.489856 -2.97674,1.118005 -6.1388,1.677736 -9.48764,1.677736 -15.25582,0 -27.7216599,-12.390502 -27.7216599,-27.669912 0,-15.279411 12.4658399,-27.7645349 27.7216599,-27.7645349 z"
   id="path4"
   inkscape:connector-curvature="0" /><g
   id="g4818"
   transform="matrix(0.95760417,0,0,0.95760417,-2.7983399,0.30803812)"
   style="stroke-width:1.0442729"><g
     style="opacity:0.6;fill:#b1cbff;stroke-width:53.2826004"
     transform="matrix(0.01959873,0,0,0.01959873,374.55775,-100.62995)"
     id="g7964"><path
       style="opacity:1;fill:#b1cbff;stroke-width:53.2826004"
       inkscape:connector-curvature="0"
       d="m -21246,2422.1 -672.67,789.72 672.67,-183.04 672.67,183.04 z"
       transform="translate(3987.6,3336.5)"
       id="path7962" /></g><g
     style="opacity:0.6;fill:#76a4ff;stroke-width:53.2826004"
     transform="matrix(0.01959873,0,0,0.01959873,374.55775,-100.62995)"
     id="g7968"><path
       style="opacity:1;fill:#76a4ff;stroke-width:53.2826004"
       inkscape:connector-curvature="0"
       d="m -21246,3028.8 -672.67,183.04 672.67,275.47 672.67,-275.47 z"
       transform="translate(3987.6,3336.5)"
       id="path7966" /></g><g
     style="opacity:0.6;fill:#3b7dff;stroke-width:53.2826004"
     transform="matrix(0.01959873,0,0,0.01959873,374.55775,-100.62995)"
     id="g7972"><path
       style="opacity:1;fill:#3b7dff;stroke-width:53.2826004"
       inkscape:connector-curvature="0"
       d="m -21918,3211.8 672.67,733.65 672.67,-733.65 -672.67,275.47 z"
       transform="translate(3987.6,3336.5)"
       id="path7970" /></g><g
     style="opacity:0.6;fill:#1463ff;stroke-width:53.2826004"
     transform="matrix(0.01959873,0,0,0.01959873,374.55775,-100.62995)"
     id="g7976"><path
       style="opacity:1;fill:#1463ff;stroke-width:53.2826004"
       inkscape:connector-curvature="0"
       d="m -21918,3211.8 672.67,1340.5 672.67,-1340.5 -672.67,733.65 z"
       transform="translate(3987.6,3336.5)"
       id="path7974" /></g><g
     style="opacity:0.6;fill:#1463ff;stroke-width:53.2826004"
     transform="matrix(-0.01959873,0,0,-0.01959873,-301.87199,166.82006)"
     id="g7980"><path
       style="opacity:1;fill:#1463ff;stroke-width:53.2826004"
       inkscape:connector-curvature="0"
       d="m -23795,3805.1 672.67,789.72 672.67,-789.72 -672.67,183.04 z"
       transform="rotate(180,-20190,5176.7)"
       id="path7978" /></g><g
     style="opacity:0.6;fill:#3b7dff;stroke-width:53.2826004"
     transform="matrix(-0.01959873,0,0,-0.01959873,-301.87199,166.82006)"
     id="g7984"><path
       style="opacity:1;fill:#3b7dff;stroke-width:53.2826004"
       inkscape:connector-curvature="0"
       d="m -23122,3529.7 -672.67,275.47 672.67,183.04 672.67,-183.04 z"
       transform="rotate(180,-20190,5176.7)"
       id="path7982" /></g><g
     style="opacity:0.6;fill:#76a4ff;stroke-width:53.2826004"
     transform="matrix(-0.01959873,0,0,-0.01959873,-301.87199,166.82006)"
     id="g7988"><path
       style="opacity:1;fill:#76a4ff;stroke-width:53.2826004"
       inkscape:connector-curvature="0"
       d="m -23122,3071.5 -672.67,733.65 672.67,-275.47 672.67,275.47 z"
       transform="rotate(180,-20190,5176.7)"
       id="path7986" /></g><g
     style="opacity:0.6;fill:#b1cbff;stroke-width:53.2826004"
     transform="matrix(-0.01959873,0,0,-0.01959873,-301.87199,166.82006)"
     id="g7992"><path
       style="opacity:1;fill:#b1cbff;stroke-width:53.2826004"
       inkscape:connector-curvature="0"
       d="m -23122,2464.6 -672.67,1340.5 672.67,-733.65 672.67,733.65 z"
       transform="rotate(180,-20190,5176.7)"
       id="path7990" /></g></g></svg>